<svg width="19" height="20" xmlns="http://www.w3.org/2000/svg" xmlns:xlink="http://www.w3.org/1999/xlink" xmlns:svgjs="http://svgjs.com/svgjs" viewBox="340 434 19 20"><svg width="10" height="3" xmlns="http://www.w3.org/2000/svg" xmlns:xlink="http://www.w3.org/1999/xlink" xmlns:svgjs="http://svgjs.com/svgjs" viewBox="0 0.687 10 1.626" fill="#a5a5a5" x="344" y="441"><svg xmlns="http://www.w3.org/2000/svg" xmlns:xlink="http://www.w3.org/1999/xlink" width="10" height="3" viewBox="0.118 0.806 9.602 1.561"><path paint-order="stroke fill markers" fill-rule="evenodd" d="M9.72 1.587a.78.78 0 0 0-.781-.78H.899a.78.78 0 0 0 0 1.56h8.04a.78.78 0 0 0 .78-.78z"/></svg></svg><svg width="7" height="3" xmlns="http://www.w3.org/2000/svg" xmlns:xlink="http://www.w3.org/1999/xlink" xmlns:svgjs="http://svgjs.com/svgjs" viewBox="0 0.652 7 1.696" fill="#a5a5a5" x="344" y="444"><svg xmlns="http://www.w3.org/2000/svg" xmlns:xlink="http://www.w3.org/1999/xlink" width="7" height="3" viewBox="0.118 0.929 6.445 1.561"><path paint-order="stroke fill markers" fill-rule="evenodd" d="M.898.929a.78.78 0 0 0 0 1.561h4.884a.78.78 0 0 0 0-1.561H.898z"/></svg></svg><svg width="17" height="20" xmlns="http://www.w3.org/2000/svg" xmlns:xlink="http://www.w3.org/1999/xlink" xmlns:svgjs="http://svgjs.com/svgjs" viewBox="0.572 0 15.855 20" fill="#a5a5a5" x="340" y="434"><svg xmlns="http://www.w3.org/2000/svg" xmlns:xlink="http://www.w3.org/1999/xlink" width="17" height="20" viewBox="1 0 15.842 19.984"><path paint-order="stroke fill markers" fill-rule="evenodd" d="M6.733 18.423h-2.61c-.862 0-1.562-.7-1.562-1.561V3.122c0-.86.7-1.56 1.561-1.56h9.598c.86 0 1.56.7 1.56 1.56v4.801a.78.78 0 0 0 1.562 0v-4.8C16.842 1.4 15.442 0 13.72 0H4.122A3.126 3.126 0 0 0 1 3.123v13.739c0 1.721 1.4 3.122 3.122 3.122h2.61a.78.78 0 1 0 0-1.561z"/></svg></svg><svg width="10" height="10" xmlns="http://www.w3.org/2000/svg" xmlns:xlink="http://www.w3.org/1999/xlink" xmlns:svgjs="http://svgjs.com/svgjs" viewBox="0 0.041 10 9.917" fill="#a5a5a5" x="349" y="444"><svg xmlns="http://www.w3.org/2000/svg" xmlns:xlink="http://www.w3.org/1999/xlink" width="10" height="10" viewBox="0.465 0.617 9.445 9.367"><path paint-order="stroke fill markers" fill-rule="evenodd" d="M9.225 1.302a2.344 2.344 0 0 0-3.312 0L1.628 5.578a.782.782 0 0 0-.196.326L.5 8.977a.78.78 0 0 0 .955.979l3.15-.873a.78.78 0 0 0 .344-.2l4.277-4.269a2.344 2.344 0 0 0 0-3.312zM3.99 7.633l-1.585.44.464-1.528L5.761 3.66l1.104 1.104-2.875 2.87zM8.121 3.51l-.15.15-1.105-1.103.15-.15A.782.782 0 0 1 8.122 3.51z"/></svg></svg><svg width="10" height="3" xmlns="http://www.w3.org/2000/svg" xmlns:xlink="http://www.w3.org/1999/xlink" xmlns:svgjs="http://svgjs.com/svgjs" viewBox="0 0.687 10 1.626" fill="#a5a5a5" x="344" y="438"><svg xmlns="http://www.w3.org/2000/svg" width="10" height="3" viewBox="0.118 0.684 9.602 1.561"><path paint-order="stroke fill markers" fill-rule="evenodd" d="M8.939.684H.899a.78.78 0 1 0 0 1.561h8.04a.78.78 0 0 0 0-1.561z"/></svg></svg></svg>